<svg width="143" height="101" viewBox="0 0 143 101" fill="none" xmlns="http://www.w3.org/2000/svg">
  <path d="M44.38 45.29H27.25L35.81 20.55L44.38 45.29ZM70.88 71.44L46.29 2H25.29L0.75 71.44H18.2L22.46 59.16H49.18L53.43 71.45L70.88 71.44Z" fill="black"/>
  <path d="M107.55 91.57C108.76 91.57 109.43 92.41 109.43 93.95C109.43 95.49 108.74 96.25 107.55 96.25C106.36 96.25 105.68 95.39 105.68 93.9C105.68 92.41 106.36 91.57 107.55 91.57ZM107.55 89.7C105.245 89.7277 103.393 91.608 103.4 93.9132C103.408 96.2184 105.272 98.0868 107.577 98.0997C109.882 98.1125 111.767 96.265 111.8 93.96C111.861 92.8143 111.433 91.6966 110.623 90.8844C109.813 90.0721 108.696 89.6417 107.55 89.7ZM102.13 90.01H100.69V87.49H98.35V90.02H97.22V91.67H98.34V95.3C98.34 96.54 98.44 96.97 98.8 97.37C99.16 97.77 99.66 97.9 100.68 97.9H102.12V96.16H101.28C100.74 96.16 100.68 96.06 100.68 94.8V91.67H102.12L102.13 90.01ZM96 92.31C95.8 90.63 94.55 89.7 92.5 89.7C90.45 89.7 89.1 90.7 89.1 92.28C89.1 93.55 89.78 94.2 91.53 94.58L92.98 94.91C93.61 95.06 93.87 95.27 93.87 95.64C93.87 96.01 93.37 96.42 92.65 96.42C91.71 96.42 91.21 96.06 91.08 95.31H88.88C89 97.07 90.37 98.16 92.58 98.16C94.79 98.16 96.16 97.1 96.16 95.42C96.1815 94.828 95.9655 94.2519 95.56 93.82C95.0503 93.3753 94.4135 93.1024 93.74 93.04L92.27 92.73C91.53 92.56 91.27 92.42 91.27 92.12C91.27 91.82 91.72 91.46 92.39 91.46C93.06 91.46 93.65 91.77 93.74 92.37L96 92.31ZM87.14 86.87H84.78V88.8H87.13L87.14 86.87ZM87.14 89.87H84.78V97.87H87.13L87.14 89.87ZM79 91.6C80.07 91.6 80.72 92.49 80.72 93.93C80.72 95.37 80 96.21 79 96.21C78 96.21 77.28 95.32 77.28 93.9C77.28 92.48 77.94 91.6 78.98 91.6M74.98 89.91V100.42H77.33V97.25C77.89 97.8495 78.6798 98.1808 79.5 98.16C81.6 98.16 83 96.48 83 93.93C83 91.38 81.58 89.75 79.48 89.75C78.5757 89.7025 77.7158 90.1458 77.23 90.91L77.3 89.97L74.98 89.91ZM69.15 91.56C70.36 91.56 71.03 92.4 71.03 93.94C71.03 95.48 70.34 96.24 69.15 96.24C67.96 96.24 67.28 95.38 67.28 93.89C67.28 92.4 67.96 91.56 69.15 91.56ZM69.15 89.69C66.845 89.7177 64.993 91.598 65.0004 93.9032C65.0079 96.2084 66.8719 98.0768 69.177 98.0897C71.4822 98.1025 73.3669 96.255 73.4 93.95C73.461 92.8043 73.0332 91.6866 72.2229 90.8744C71.4126 90.0621 70.2958 89.6317 69.15 89.69ZM63.34 86.86H61V88.79H63.35L63.34 86.86ZM63.34 89.86H61V97.86H63.35L63.34 89.86ZM58.76 86.86H56.44V97.86H58.79L58.76 86.86ZM52.66 89.86L51.66 93.46C51.48 94.17 51.35 94.71 51.25 95.24L51.15 94.93C50.97 94.27 50.97 94.25 50.74 93.51L49.57 89.86H47L49.63 96.57C49.91 97.26 49.93 97.31 49.93 97.57C49.93 98.26 49.55 98.57 48.72 98.57H48.03V100.34H49.4C51.18 100.34 51.56 100.01 52.31 97.88L55.09 89.88L52.66 89.86ZM45.9 92.76H40.51V94.87H45.9V92.76ZM34.64 91.57C35.85 91.57 36.52 92.41 36.52 93.95C36.52 95.49 35.83 96.25 34.64 96.25C33.45 96.25 32.77 95.39 32.77 93.9C32.77 92.41 33.45 91.57 34.64 91.57ZM34.64 89.7C32.3176 89.7 30.435 91.5826 30.435 93.905C30.435 96.2274 32.3176 98.11 34.64 98.11C36.9624 98.11 38.845 96.2274 38.845 93.905C38.845 91.5826 36.9624 89.7 34.64 89.7ZM29.37 90.01H27.93V87.49H25.59V90.02H24.46V91.67H25.58V95.3C25.58 96.54 25.68 96.97 26.04 97.37C26.4 97.77 26.9 97.9 27.92 97.9H29.36V96.16H28.52C27.97 96.16 27.93 96.06 27.93 94.8V91.67H29.37V90.01ZM23 86.88H20.67V97.88H23V86.88ZM16.38 95.32C16.0538 95.9631 15.3803 96.3547 14.66 96.32C13.93 96.32 13.47 96.01 13.47 95.48C13.47 94.95 13.83 94.72 14.68 94.48L15.52 94.3C15.814 94.2445 16.102 94.1608 16.38 94.05V95.32ZM13.67 92.43C13.77 91.79 14.23 91.43 15.07 91.43C15.91 91.43 16.31 91.71 16.31 92.17C16.31 92.63 16.13 92.63 15.6 92.71L14.33 92.92C12.1 93.28 11.16 94.06 11.16 95.55C11.16 97.04 12.34 98.16 14.09 98.16C14.9387 98.2028 15.7686 97.8997 16.39 97.32C16.47 97.62 16.47 97.67 16.57 97.95H19C18.74 97.55 18.7 97.44 18.7 96.58V92.86C18.8214 92.002 18.5282 91.1373 17.91 90.53C17.1265 89.9164 16.1425 89.6169 15.15 89.69C12.9 89.69 11.76 90.58 11.61 92.43H13.67ZM6.52 93.65H4L5.34 89.34L6.52 93.65ZM7.07 95.65L7.66 97.86H10.47L7 86.88H3.88L0 97.9H2.72L3.41 95.69L7.07 95.65Z" fill="white"/>
  <path d="M96.74 55.68V71.4H81.02V55.68H96.74ZM89 0.16C104.27 0.16 114.93 7.65 114.93 21.03H114.89C114.89 29.78 109.29 34.46 104.05 37.92C98.27 41.74 96.7 43.86 96.7 49.41V50.04H81V48.5C81 38.16 85 33.82 91.61 30.11C96.18 27.57 98.18 25.14 98.18 21.57C98.18 17.09 94.29 14.16 88.8 14.16C82.84 14.16 78.45 17.06 78.45 23.53H62.83V21.35C62.83 7.81 74.23 0.16 89 0.16Z" fill="white"/>
  </svg>